<?xml version="1.0" encoding="UTF-8" standalone="no"?>
<svg xmlns:dc="http://purl.org/dc/elements/1.1/" xmlns:cc="http://creativecommons.org/ns#" xmlns:rdf="http://www.w3.org/1999/02/22-rdf-syntax-ns#" xmlns:svg="http://www.w3.org/2000/svg" xmlns="http://www.w3.org/2000/svg" id="svg254" height="119.6mm" width="323.32999mm" version="1.0">
  <metadata id="metadata258">
    <rdf:RDF>
      <cc:Work rdf:about="">
        <dc:format>image/svg+xml</dc:format>
        <dc:type rdf:resource="http://purl.org/dc/dcmitype/StillImage"/>
      </cc:Work>
    </rdf:RDF>
  </metadata>
  <defs id="defs6">
    <clipPath id="clipEmfPath1" clipPathUnits="userSpaceOnUse">
      <path id="path2" d="M 10.079476,-0.31998338 L 1232.096,-0.31998338 L 1232.096,451.65654 L 10.079476,451.65654 z"/>
    </clipPath>
    <pattern y="0" x="0" height="6" width="6" patternUnits="userSpaceOnUse" id="EMFhbasepattern"/>
  </defs>
  <path id="path8" d="  M 12.079373,0.079995845   L 12.079373,114.79404   L 266.46616,114.79404   L 266.46616,0.079995845   L 12.079373,0.079995845   z " style="fill:#c55a11;fill-rule:evenodd;fill-opacity:1;stroke:none;"/>
  <text id="text14" y="0.000000" x="0.000000" transform="matrix(1.000000,-0.000000,0.000000,1.000000,34.335590,51.974361)" style="font-size:21.250000px;font-style:normal;font-variant:normal;font-weight:400;font-stretch:Normal;line-height:125.000000%;letter-spacing:0px;word-spacing:0px;fill:#000000;fill-opacity:1;stroke:none;font-family:Calibri;text-align:start;text-anchor:start;" xml:space="preserve"><tspan id="tspan12" y="0.000000" x="0.000000"><tspan id="tspan10" style="fill:#FFFFFF;font-size:21.250000px;font-style:normal;font-variant:normal;font-weight:400;font-stretch:Normal;font-family:Calibri;" dy="0.000000" dx="0.000000">Choose SQLite Database </tspan></tspan></text>
  <text id="text20" y="0.000000" x="0.000000" transform="matrix(1.000000,-0.000000,0.000000,1.000000,75.133471,77.573031)" style="font-size:21.250000px;font-style:normal;font-variant:normal;font-weight:400;font-stretch:Normal;line-height:125.000000%;letter-spacing:0px;word-spacing:0px;fill:#000000;fill-opacity:1;stroke:none;font-family:Calibri;text-align:start;text-anchor:start;" xml:space="preserve"><tspan id="tspan18" y="0.000000" x="0.000000"><tspan id="tspan16" style="fill:#FFFFFF;font-size:21.250000px;font-style:normal;font-variant:normal;font-weight:400;font-stretch:Normal;font-family:Calibri;" dy="0.000000" dx="0.000000">for persistence</tspan></tspan></text>
  <path id="path22" d="  M 326.94302,0.079995845   L 326.94302,114.79404   L 581.32981,114.79404   L 581.32981,0.079995845   L 326.94302,0.079995845   z " style="fill:#2f5597;fill-rule:evenodd;fill-opacity:1;stroke:none;"/>
  <text id="text28" y="0.000000" x="0.000000" transform="matrix(1.000000,-0.000000,0.000000,1.000000,385.510211,51.974254)" style="font-size:21.250000px;font-style:normal;font-variant:normal;font-weight:400;font-stretch:Normal;line-height:125.000000%;letter-spacing:0px;word-spacing:0px;fill:#000000;fill-opacity:1;stroke:none;font-family:Calibri;text-align:start;text-anchor:start;" xml:space="preserve"><tspan id="tspan26" y="0.000000" x="0.000000"><tspan id="tspan24" style="fill:#FFFFFF;font-size:21.250000px;font-style:normal;font-variant:normal;font-weight:400;font-stretch:Normal;font-family:Calibri;" dy="0.000000" dx="0.000000">Add and modify </tspan></tspan></text>
  <text id="text34" y="0.000000" x="0.000000" transform="matrix(1.000000,-0.000000,0.000000,1.000000,409.828948,77.572924)" style="font-size:21.250000px;font-style:normal;font-variant:normal;font-weight:400;font-stretch:Normal;line-height:125.000000%;letter-spacing:0px;word-spacing:0px;fill:#000000;fill-opacity:1;stroke:none;font-family:Calibri;text-align:start;text-anchor:start;" xml:space="preserve"><tspan id="tspan32" y="0.000000" x="0.000000"><tspan id="tspan30" style="fill:#FFFFFF;font-size:21.250000px;font-style:normal;font-variant:normal;font-weight:400;font-stretch:Normal;font-family:Calibri;" dy="0.000000" dx="0.000000">input data</tspan></tspan></text>
  <path id="path36" d="  M 956.67031,0.079995845   L 956.67031,114.79404   L 1211.0571,114.79404   L 1211.0571,0.079995845   L 956.67031,0.079995845   z " style="fill:#333f50;fill-rule:evenodd;fill-opacity:1;stroke:none;"/>
  <text id="text42" y="0.000000" x="0.000000" transform="matrix(1.000000,-0.000000,0.000000,1.000000,993.150994,51.974254)" style="font-size:21.250000px;font-style:normal;font-variant:normal;font-weight:400;font-stretch:Normal;line-height:125.000000%;letter-spacing:0px;word-spacing:0px;fill:#000000;fill-opacity:1;stroke:none;font-family:Calibri;text-align:start;text-anchor:start;" xml:space="preserve"><tspan id="tspan40" y="0.000000" x="0.000000"><tspan id="tspan38" style="fill:#FFFFFF;font-size:21.250000px;font-style:normal;font-variant:normal;font-weight:400;font-stretch:Normal;font-family:Calibri;" dy="0.000000" dx="0.000000">Export container and </tspan></tspan></text>
  <text id="text48" y="0.000000" x="0.000000" transform="matrix(1.000000,-0.000000,0.000000,1.000000,1002.430512,77.572924)" style="font-size:21.250000px;font-style:normal;font-variant:normal;font-weight:400;font-stretch:Normal;line-height:125.000000%;letter-spacing:0px;word-spacing:0px;fill:#000000;fill-opacity:1;stroke:none;font-family:Calibri;text-align:start;text-anchor:start;" xml:space="preserve"><tspan id="tspan46" y="0.000000" x="0.000000"><tspan id="tspan44" style="fill:#FFFFFF;font-size:21.250000px;font-style:normal;font-variant:normal;font-weight:400;font-stretch:Normal;font-family:Calibri;" dy="0.000000" dx="0.000000">vehicle arrival data</tspan></tspan></text>
  <path id="path50" d="  M 641.80666,0.079995845   L 641.80666,114.79404   L 896.19345,114.79404   L 896.19345,0.079995845   L 641.80666,0.079995845   z " style="fill:#548235;fill-rule:evenodd;fill-opacity:1;stroke:none;"/>
  <text id="text56" y="0.000000" x="0.000000" transform="matrix(1.000000,-0.000000,0.000000,1.000000,663.891924,51.974254)" style="font-size:21.250000px;font-style:normal;font-variant:normal;font-weight:400;font-stretch:Normal;line-height:125.000000%;letter-spacing:0px;word-spacing:0px;fill:#000000;fill-opacity:1;stroke:none;font-family:Calibri;text-align:start;text-anchor:start;" xml:space="preserve"><tspan id="tspan54" y="0.000000" x="0.000000"><tspan id="tspan52" style="fill:#FFFFFF;font-size:21.250000px;font-style:normal;font-variant:normal;font-weight:400;font-stretch:Normal;font-family:Calibri;" dy="0.000000" dx="0.000000">Generate container flow </tspan></tspan></text>
  <text id="text62" y="0.000000" x="0.000000" transform="matrix(1.000000,-0.000000,0.000000,1.000000,749.807462,77.572924)" style="font-size:21.250000px;font-style:normal;font-variant:normal;font-weight:400;font-stretch:Normal;line-height:125.000000%;letter-spacing:0px;word-spacing:0px;fill:#000000;fill-opacity:1;stroke:none;font-family:Calibri;text-align:start;text-anchor:start;" xml:space="preserve"><tspan id="tspan60" y="0.000000" x="0.000000"><tspan id="tspan58" style="fill:#FFFFFF;font-size:21.250000px;font-style:normal;font-variant:normal;font-weight:400;font-stretch:Normal;font-family:Calibri;" dy="0.000000" dx="0.000000">data</tspan></tspan></text>
  <path id="path64" d="  M 10.639447,449.41666   L 10.639447,437.25729   L 13.67929,437.25729   L 13.67929,449.41666   L 10.639447,449.41666  z    M 10.639447,428.13776   L 10.639447,415.97839   L 13.67929,415.97839   L 13.67929,428.13776   L 10.639447,428.13776  z    M 10.639447,406.85887   L 10.639447,394.6995   L 13.67929,394.6995   L 13.67929,406.85887   L 10.639447,406.85887  z    M 10.639447,385.57997   L 10.639447,373.4206   L 13.67929,373.4206   L 13.67929,385.57997   L 10.639447,385.57997  z    M 10.639447,364.30108   L 10.639447,352.14171   L 13.67929,352.14171   L 13.67929,364.30108   L 10.639447,364.30108  z    M 10.639447,343.02218   L 10.639447,330.86282   L 13.67929,330.86282   L 13.67929,343.02218   L 10.639447,343.02218  z    M 10.639447,321.74329   L 10.639447,309.58392   L 13.67929,309.58392   L 13.67929,321.74329   L 10.639447,321.74329  z    M 10.639447,300.46439   L 10.639447,288.30503   L 13.67929,288.30503   L 13.67929,300.46439   L 10.639447,300.46439  z    M 10.639447,279.1855   L 10.639447,267.02613   L 13.67929,267.02613   L 13.67929,279.1855   L 10.639447,279.1855  z    M 10.639447,257.9066   L 10.639447,245.74724   L 13.67929,245.74724   L 13.67929,257.9066   L 10.639447,257.9066  z    M 10.639447,236.62771   L 10.639447,224.46834   L 13.67929,224.46834   L 13.67929,236.62771   L 10.639447,236.62771  z    M 10.639447,215.34881   L 10.639447,203.18945   L 13.67929,203.18945   L 13.67929,215.34881   L 10.639447,215.34881  z    M 10.639447,194.06992   L 10.639447,187.43026   L 19.199003,187.43026   L 19.199003,190.47011   L 12.159368,190.47011   L 13.67929,188.95019   L 13.67929,194.06992   L 10.639447,194.06992  z    M 28.318529,187.43026   L 40.477898,187.43026   L 40.477898,190.47011   L 28.318529,190.47011   L 28.318529,187.43026  z    M 49.597424,187.43026   L 61.756792,187.43026   L 61.756792,190.47011   L 49.597424,190.47011   L 49.597424,187.43026  z    M 70.876319,187.43026   L 83.035687,187.43026   L 83.035687,190.47011   L 70.876319,190.47011   L 70.876319,187.43026  z    M 92.155214,187.43026   L 104.31458,187.43026   L 104.31458,190.47011   L 92.155214,190.47011   L 92.155214,187.43026  z    M 113.43411,187.43026   L 125.59348,187.43026   L 125.59348,190.47011   L 113.43411,190.47011   L 113.43411,187.43026  z    M 134.713,187.43026   L 146.87237,187.43026   L 146.87237,190.47011   L 134.713,190.47011   L 134.713,187.43026  z    M 155.9919,187.43026   L 168.15127,187.43026   L 168.15127,190.47011   L 155.9919,190.47011   L 155.9919,187.43026  z    M 177.27079,187.43026   L 189.43016,187.43026   L 189.43016,190.47011   L 177.27079,190.47011   L 177.27079,187.43026  z    M 198.54969,187.43026   L 210.70906,187.43026   L 210.70906,190.47011   L 198.54969,190.47011   L 198.54969,187.43026  z    M 219.82858,187.43026   L 231.98795,187.43026   L 231.98795,190.47011   L 219.82858,190.47011   L 219.82858,187.43026  z    M 241.10748,187.43026   L 253.26685,187.43026   L 253.26685,190.47011   L 241.10748,190.47011   L 241.10748,187.43026  z    M 262.38637,187.43026   L 274.54574,187.43026   L 274.54574,190.47011   L 262.38637,190.47011   L 262.38637,187.43026  z    M 283.66527,187.43026   L 295.82464,187.43026   L 295.82464,190.47011   L 283.66527,190.47011   L 283.66527,187.43026  z    M 304.94416,187.43026   L 317.10353,187.43026   L 317.10353,190.47011   L 304.94416,190.47011   L 304.94416,187.43026  z    M 326.22306,187.43026   L 338.38242,187.43026   L 338.38242,190.47011   L 326.22306,190.47011   L 326.22306,187.43026  z    M 347.50195,187.43026   L 359.66132,187.43026   L 359.66132,190.47011   L 347.50195,190.47011   L 347.50195,187.43026  z    M 368.78085,187.43026   L 380.94021,187.43026   L 380.94021,190.47011   L 368.78085,190.47011   L 368.78085,187.43026  z    M 390.05974,187.43026   L 402.21911,187.43026   L 402.21911,190.47011   L 390.05974,190.47011   L 390.05974,187.43026  z    M 411.33864,187.43026   L 423.498,187.43026   L 423.498,190.47011   L 411.33864,190.47011   L 411.33864,187.43026  z    M 432.61753,187.43026   L 444.7769,187.43026   L 444.7769,190.47011   L 432.61753,190.47011   L 432.61753,187.43026  z    M 453.89642,187.43026   L 466.05579,187.43026   L 466.05579,190.47011   L 453.89642,190.47011   L 453.89642,187.43026  z    M 475.17532,187.43026   L 487.33469,187.43026   L 487.33469,190.47011   L 475.17532,190.47011   L 475.17532,187.43026  z    M 496.45421,187.43026   L 508.61358,187.43026   L 508.61358,190.47011   L 496.45421,190.47011   L 496.45421,187.43026  z    M 517.73311,187.43026   L 529.89248,187.43026   L 529.89248,190.47011   L 517.73311,190.47011   L 517.73311,187.43026  z    M 539.012,187.43026   L 551.17137,187.43026   L 551.17137,190.47011   L 539.012,190.47011   L 539.012,187.43026  z    M 560.2909,187.43026   L 572.45027,187.43026   L 572.45027,190.47011   L 560.2909,190.47011   L 560.2909,187.43026  z    M 581.56979,187.43026   L 593.72916,187.43026   L 593.72916,190.47011   L 581.56979,190.47011   L 581.56979,187.43026  z    M 602.84869,187.43026   L 615.00806,187.43026   L 615.00806,190.47011   L 602.84869,190.47011   L 602.84869,187.43026  z    M 624.12758,187.43026   L 636.28695,187.43026   L 636.28695,190.47011   L 624.12758,190.47011   L 624.12758,187.43026  z    M 645.40648,187.43026   L 657.56585,187.43026   L 657.56585,190.47011   L 645.40648,190.47011   L 645.40648,187.43026  z    M 666.68537,187.43026   L 678.84474,187.43026   L 678.84474,190.47011   L 666.68537,190.47011   L 666.68537,187.43026  z    M 687.96427,187.43026   L 700.12364,187.43026   L 700.12364,190.47011   L 687.96427,190.47011   L 687.96427,187.43026  z    M 709.24316,187.43026   L 721.40253,187.43026   L 721.40253,190.47011   L 709.24316,190.47011   L 709.24316,187.43026  z    M 730.52206,187.43026   L 742.68143,187.43026   L 742.68143,190.47011   L 730.52206,190.47011   L 730.52206,187.43026  z    M 751.80095,187.43026   L 763.96032,187.43026   L 763.96032,190.47011   L 751.80095,190.47011   L 751.80095,187.43026  z    M 773.07985,187.43026   L 785.23922,187.43026   L 785.23922,190.47011   L 773.07985,190.47011   L 773.07985,187.43026  z    M 794.35874,187.43026   L 806.51811,187.43026   L 806.51811,190.47011   L 794.35874,190.47011   L 794.35874,187.43026  z    M 815.63764,187.43026   L 827.797,187.43026   L 827.797,190.47011   L 815.63764,190.47011   L 815.63764,187.43026  z    M 836.91653,187.43026   L 849.0759,187.43026   L 849.0759,190.47011   L 836.91653,190.47011   L 836.91653,187.43026  z    M 858.19543,187.43026   L 870.35479,187.43026   L 870.35479,190.47011   L 858.19543,190.47011   L 858.19543,187.43026  z    M 879.47432,187.43026   L 891.63369,187.43026   L 891.63369,190.47011   L 879.47432,190.47011   L 879.47432,187.43026  z    M 900.75322,187.43026   L 912.91258,187.43026   L 912.91258,190.47011   L 900.75322,190.47011   L 900.75322,187.43026  z    M 922.03211,187.43026   L 934.19148,187.43026   L 934.19148,190.47011   L 922.03211,190.47011   L 922.03211,187.43026  z    M 943.311,187.43026   L 955.47037,187.43026   L 955.47037,190.47011   L 943.311,190.47011   L 943.311,187.43026  z    M 964.5899,187.43026   L 976.74927,187.43026   L 976.74927,190.47011   L 964.5899,190.47011   L 964.5899,187.43026  z    M 985.86879,187.43026   L 998.02816,187.43026   L 998.02816,190.47011   L 985.86879,190.47011   L 985.86879,187.43026  z    M 1007.1477,187.43026   L 1019.3071,187.43026   L 1019.3071,190.47011   L 1007.1477,190.47011   L 1007.1477,187.43026  z    M 1028.4266,187.43026   L 1040.586,187.43026   L 1040.586,190.47011   L 1028.4266,190.47011   L 1028.4266,187.43026  z    M 1049.7055,187.43026   L 1061.8648,187.43026   L 1061.8648,190.47011   L 1049.7055,190.47011   L 1049.7055,187.43026  z    M 1070.9844,187.43026   L 1083.1437,187.43026   L 1083.1437,190.47011   L 1070.9844,190.47011   L 1070.9844,187.43026  z    M 1092.2633,187.43026   L 1104.4226,187.43026   L 1104.4226,190.47011   L 1092.2633,190.47011   L 1092.2633,187.43026  z    M 1113.5422,187.43026   L 1125.7015,187.43026   L 1125.7015,190.47011   L 1113.5422,190.47011   L 1113.5422,187.43026  z    M 1134.8211,187.43026   L 1146.9804,187.43026   L 1146.9804,190.47011   L 1134.8211,190.47011   L 1134.8211,187.43026  z    M 1156.1,187.43026   L 1168.2593,187.43026   L 1168.2593,190.47011   L 1156.1,190.47011   L 1156.1,187.43026  z    M 1177.3788,187.43026   L 1189.5382,187.43026   L 1189.5382,190.47011   L 1177.3788,190.47011   L 1177.3788,187.43026  z    M 1198.6577,187.43026   L 1210.8171,187.43026   L 1210.8171,190.47011   L 1198.6577,190.47011   L 1198.6577,187.43026  z    M 1212.657,197.74973   L 1212.657,209.9091   L 1209.6172,209.9091   L 1209.6172,197.74973   L 1212.657,197.74973  z    M 1212.657,219.02862   L 1212.657,231.18799   L 1209.6172,231.18799   L 1209.6172,219.02862   L 1212.657,219.02862  z    M 1212.657,240.30752   L 1212.657,252.46689   L 1209.6172,252.46689   L 1209.6172,240.30752   L 1212.657,240.30752  z    M 1212.657,261.58641   L 1212.657,273.74578   L 1209.6172,273.74578   L 1209.6172,261.58641   L 1212.657,261.58641  z    M 1212.657,282.86531   L 1212.657,295.02468   L 1209.6172,295.02468   L 1209.6172,282.86531   L 1212.657,282.86531  z    M 1212.657,304.1442   L 1212.657,316.30357   L 1209.6172,316.30357   L 1209.6172,304.1442   L 1212.657,304.1442  z    M 1212.657,325.4231   L 1212.657,337.58247   L 1209.6172,337.58247   L 1209.6172,325.4231   L 1212.657,325.4231  z    M 1212.657,346.70199   L 1212.657,358.86136   L 1209.6172,358.86136   L 1209.6172,346.70199   L 1212.657,346.70199  z    M 1212.657,367.98089   L 1212.657,380.14026   L 1209.6172,380.14026   L 1209.6172,367.98089   L 1212.657,367.98089  z    M 1212.657,389.25978   L 1212.657,401.41915   L 1209.6172,401.41915   L 1209.6172,389.25978   L 1212.657,389.25978  z    M 1212.657,410.53868   L 1212.657,422.69805   L 1209.6172,422.69805   L 1209.6172,410.53868   L 1212.657,410.53868  z    M 1212.657,431.81757   L 1212.657,443.97694   L 1209.6172,443.97694   L 1209.6172,431.81757   L 1212.657,431.81757  z    M 1207.4573,450.93658   L 1195.2979,450.93658   L 1195.2979,447.89674   L 1207.4573,447.89674   L 1207.4573,450.93658  z    M 1186.1784,450.93658   L 1174.019,450.93658   L 1174.019,447.89674   L 1186.1784,447.89674   L 1186.1784,450.93658  z    M 1164.8995,450.93658   L 1152.7401,450.93658   L 1152.7401,447.89674   L 1164.8995,447.89674   L 1164.8995,450.93658  z    M 1143.6206,450.93658   L 1131.4612,450.93658   L 1131.4612,447.89674   L 1143.6206,447.89674   L 1143.6206,450.93658  z    M 1122.3417,450.93658   L 1110.1823,450.93658   L 1110.1823,447.89674   L 1122.3417,447.89674   L 1122.3417,450.93658  z    M 1101.0628,450.93658   L 1088.9034,450.93658   L 1088.9034,447.89674   L 1101.0628,447.89674   L 1101.0628,450.93658  z    M 1079.7839,450.93658   L 1067.6245,450.93658   L 1067.6245,447.89674   L 1079.7839,447.89674   L 1079.7839,450.93658  z    M 1058.505,450.93658   L 1046.3457,450.93658   L 1046.3457,447.89674   L 1058.505,447.89674   L 1058.505,450.93658  z    M 1037.2261,450.93658   L 1025.0668,450.93658   L 1025.0668,447.89674   L 1037.2261,447.89674   L 1037.2261,450.93658  z    M 1015.9472,450.93658   L 1003.7879,450.93658   L 1003.7879,447.89674   L 1015.9472,447.89674   L 1015.9472,450.93658  z    M 994.66834,450.93658   L 982.50897,450.93658   L 982.50897,447.89674   L 994.66834,447.89674   L 994.66834,450.93658  z    M 973.38944,450.93658   L 961.23007,450.93658   L 961.23007,447.89674   L 973.38944,447.89674   L 973.38944,450.93658  z    M 952.11055,450.93658   L 939.95118,450.93658   L 939.95118,447.89674   L 952.11055,447.89674   L 952.11055,450.93658  z    M 930.83165,450.93658   L 918.67228,450.93658   L 918.67228,447.89674   L 930.83165,447.89674   L 930.83165,450.93658  z    M 909.55276,450.93658   L 897.39339,450.93658   L 897.39339,447.89674   L 909.55276,447.89674   L 909.55276,450.93658  z    M 888.27386,450.93658   L 876.1145,450.93658   L 876.1145,447.89674   L 888.27386,447.89674   L 888.27386,450.93658  z    M 866.99497,450.93658   L 854.8356,450.93658   L 854.8356,447.89674   L 866.99497,447.89674   L 866.99497,450.93658  z    M 845.71607,450.93658   L 833.55671,450.93658   L 833.55671,447.89674   L 845.71607,447.89674   L 845.71607,450.93658  z    M 824.43718,450.93658   L 812.27781,450.93658   L 812.27781,447.89674   L 824.43718,447.89674   L 824.43718,450.93658  z    M 803.15828,450.93658   L 790.99892,450.93658   L 790.99892,447.89674   L 803.15828,447.89674   L 803.15828,450.93658  z    M 781.87939,450.93658   L 769.72002,450.93658   L 769.72002,447.89674   L 781.87939,447.89674   L 781.87939,450.93658  z    M 760.60049,450.93658   L 748.44113,450.93658   L 748.44113,447.89674   L 760.60049,447.89674   L 760.60049,450.93658  z    M 739.3216,450.93658   L 727.16223,450.93658   L 727.16223,447.89674   L 739.3216,447.89674   L 739.3216,450.93658  z    M 718.04271,450.93658   L 705.88334,450.93658   L 705.88334,447.89674   L 718.04271,447.89674   L 718.04271,450.93658  z    M 696.76381,450.93658   L 684.60444,450.93658   L 684.60444,447.89674   L 696.76381,447.89674   L 696.76381,450.93658  z    M 675.48492,450.93658   L 663.32555,450.93658   L 663.32555,447.89674   L 675.48492,447.89674   L 675.48492,450.93658  z    M 654.20602,450.93658   L 642.04665,450.93658   L 642.04665,447.89674   L 654.20602,447.89674   L 654.20602,450.93658  z    M 632.92713,450.93658   L 620.76776,450.93658   L 620.76776,447.89674   L 632.92713,447.89674   L 632.92713,450.93658  z    M 611.64823,450.93658   L 599.48886,450.93658   L 599.48886,447.89674   L 611.64823,447.89674   L 611.64823,450.93658  z    M 590.36934,450.93658   L 578.20997,450.93658   L 578.20997,447.89674   L 590.36934,447.89674   L 590.36934,450.93658  z    M 569.09044,450.93658   L 556.93107,450.93658   L 556.93107,447.89674   L 569.09044,447.89674   L 569.09044,450.93658  z    M 547.81155,450.93658   L 535.65218,450.93658   L 535.65218,447.89674   L 547.81155,447.89674   L 547.81155,450.93658  z    M 526.53265,450.93658   L 514.37328,450.93658   L 514.37328,447.89674   L 526.53265,447.89674   L 526.53265,450.93658  z    M 505.25376,450.93658   L 493.09439,450.93658   L 493.09439,447.89674   L 505.25376,447.89674   L 505.25376,450.93658  z    M 483.97486,450.93658   L 471.81549,450.93658   L 471.81549,447.89674   L 483.97486,447.89674   L 483.97486,450.93658  z    M 462.69597,450.93658   L 450.5366,450.93658   L 450.5366,447.89674   L 462.69597,447.89674   L 462.69597,450.93658  z    M 441.41707,450.93658   L 429.2577,450.93658   L 429.2577,447.89674   L 441.41707,447.89674   L 441.41707,450.93658  z    M 420.13818,450.93658   L 407.97881,450.93658   L 407.97881,447.89674   L 420.13818,447.89674   L 420.13818,450.93658  z    M 398.85928,450.93658   L 386.69991,450.93658   L 386.69991,447.89674   L 398.85928,447.89674   L 398.85928,450.93658  z    M 377.58039,450.93658   L 365.42102,450.93658   L 365.42102,447.89674   L 377.58039,447.89674   L 377.58039,450.93658  z    M 356.30149,450.93658   L 344.14213,450.93658   L 344.14213,447.89674   L 356.30149,447.89674   L 356.30149,450.93658  z    M 335.0226,450.93658   L 322.86323,450.93658   L 322.86323,447.89674   L 335.0226,447.89674   L 335.0226,450.93658  z    M 313.7437,450.93658   L 301.58434,450.93658   L 301.58434,447.89674   L 313.7437,447.89674   L 313.7437,450.93658  z    M 292.46481,450.93658   L 280.30544,450.93658   L 280.30544,447.89674   L 292.46481,447.89674   L 292.46481,450.93658  z    M 271.18591,450.93658   L 259.02655,450.93658   L 259.02655,447.89674   L 271.18591,447.89674   L 271.18591,450.93658  z    M 249.90702,450.93658   L 237.74765,450.93658   L 237.74765,447.89674   L 249.90702,447.89674   L 249.90702,450.93658  z    M 228.62813,450.93658   L 216.46876,450.93658   L 216.46876,447.89674   L 228.62813,447.89674   L 228.62813,450.93658  z    M 207.34923,450.93658   L 195.18986,450.93658   L 195.18986,447.89674   L 207.34923,447.89674   L 207.34923,450.93658  z    M 186.07034,450.93658   L 173.91097,450.93658   L 173.91097,447.89674   L 186.07034,447.89674   L 186.07034,450.93658  z    M 164.79144,450.93658   L 152.63207,450.93658   L 152.63207,447.89674   L 164.79144,447.89674   L 164.79144,450.93658  z    M 143.51255,450.93658   L 131.35318,450.93658   L 131.35318,447.89674   L 143.51255,447.89674   L 143.51255,450.93658  z    M 122.23365,450.93658   L 110.07428,450.93658   L 110.07428,447.89674   L 122.23365,447.89674   L 122.23365,450.93658  z    M 100.95476,450.93658   L 88.795388,450.93658   L 88.795388,447.89674   L 100.95476,447.89674   L 100.95476,450.93658  z    M 79.675862,450.93658   L 67.516493,450.93658   L 67.516493,447.89674   L 79.675862,447.89674   L 79.675862,450.93658  z    M 58.396967,450.93658   L 46.237598,450.93658   L 46.237598,447.89674   L 58.396967,447.89674   L 58.396967,450.93658  z    M 37.118072,450.93658   L 24.958704,450.93658   L 24.958704,447.89674   L 37.118072,447.89674   L 37.118072,450.93658  z    M 15.839177,450.93658   L 12.159368,450.93658   L 12.159368,447.89674   L 15.839177,447.89674   L 15.839177,450.93658  z   " clip-path="url(#clipEmfPath1)" style="fill:#548235;fill-rule:nonzero;fill-opacity:1;stroke:#548235;stroke-width:0.039997924px;stroke-linecap:butt;stroke-linejoin:round;stroke-miterlimit:4;stroke-dasharray:none;stroke-opacity:1;"/>
  <path id="path66" d="  M 940.83113,342.30222   L 940.83113,431.41759   L 1190.2582,431.41759   L 1190.2582,342.30222   L 940.83113,342.30222   z " style="fill:#548235;fill-rule:evenodd;fill-opacity:1;stroke:none;"/>
  <path id="path68" d="  M 940.83113,342.30222   L 1190.2582,342.30222   L 1190.2582,431.41759   L 940.83113,431.41759   z " style="fill:none;stroke:#2f528f;stroke-width:1.2799336px;stroke-linecap:butt;stroke-linejoin:miter;stroke-miterlimit:8;stroke-dasharray:none;stroke-opacity:1;"/>
  <text id="text74" y="0.000000" x="0.000000" transform="matrix(1.000000,-0.000000,0.000000,1.000000,962.845772,368.507540)" style="font-size:21.250000px;font-style:normal;font-variant:normal;font-weight:400;font-stretch:Normal;line-height:125.000000%;letter-spacing:0px;word-spacing:0px;fill:#000000;fill-opacity:1;stroke:none;font-family:Calibri;text-align:start;text-anchor:start;" xml:space="preserve"><tspan id="tspan72" y="0.000000" x="0.000000"><tspan id="tspan70" style="fill:#FFFFFF;font-size:21.250000px;font-style:normal;font-variant:normal;font-weight:400;font-stretch:Normal;font-family:Calibri;" dy="0.000000" dx="0.000000">Allocate containers that </tspan></tspan></text>
  <text id="text80" y="0.000000" x="0.000000" transform="matrix(1.000000,-0.000000,0.000000,1.000000,953.726245,394.106210)" style="font-size:21.250000px;font-style:normal;font-variant:normal;font-weight:400;font-stretch:Normal;line-height:125.000000%;letter-spacing:0px;word-spacing:0px;fill:#000000;fill-opacity:1;stroke:none;font-family:Calibri;text-align:start;text-anchor:start;" xml:space="preserve"><tspan id="tspan78" y="0.000000" x="0.000000"><tspan id="tspan76" style="fill:#FFFFFF;font-size:21.250000px;font-style:normal;font-variant:normal;font-weight:400;font-stretch:Normal;font-family:Calibri;" dy="0.000000" dx="0.000000">are delivered by trucks on </tspan></tspan></text>
  <text id="text86" y="0.000000" x="0.000000" transform="matrix(1.000000,-0.000000,0.000000,1.000000,990.844317,419.704880)" style="font-size:21.250000px;font-style:normal;font-variant:normal;font-weight:400;font-stretch:Normal;line-height:125.000000%;letter-spacing:0px;word-spacing:0px;fill:#000000;fill-opacity:1;stroke:none;font-family:Calibri;text-align:start;text-anchor:start;" xml:space="preserve"><tspan id="tspan84" y="0.000000" x="0.000000"><tspan id="tspan82" style="fill:#FFFFFF;font-size:21.250000px;font-style:normal;font-variant:normal;font-weight:400;font-stretch:Normal;font-family:Calibri;" dy="0.000000" dx="0.000000">available vehicles</tspan></tspan></text>
  <path id="path88" d="  M 32.878292,202.1495   L 32.878292,291.26487   L 278.30554,291.26487   L 278.30554,202.1495   L 32.878292,202.1495   z " style="fill:#548235;fill-rule:evenodd;fill-opacity:1;stroke:none;"/>
  <path id="path90" d="  M 32.878292,202.1495   L 278.30554,202.1495   L 278.30554,291.26487   L 32.878292,291.26487   z " style="fill:none;stroke:#2f528f;stroke-width:1.2799336px;stroke-linecap:butt;stroke-linejoin:miter;stroke-miterlimit:8;stroke-dasharray:none;stroke-opacity:1;"/>
  <text id="text96" y="0.000000" x="0.000000" transform="matrix(1.000000,-0.000000,0.000000,1.000000,48.239750,228.396594)" style="font-size:21.250000px;font-style:normal;font-variant:normal;font-weight:400;font-stretch:Normal;line-height:125.000000%;letter-spacing:0px;word-spacing:0px;fill:#000000;fill-opacity:1;stroke:none;font-family:Calibri;text-align:start;text-anchor:start;" xml:space="preserve"><tspan id="tspan94" y="0.000000" x="0.000000"><tspan id="tspan92" style="fill:#FFFFFF;font-size:21.250000px;font-style:normal;font-variant:normal;font-weight:400;font-stretch:Normal;font-family:Calibri;" dy="0.000000" dx="0.000000">Create all vehicles within </tspan></tspan></text>
  <text id="text102" y="0.000000" x="0.000000" transform="matrix(1.000000,-0.000000,0.000000,1.000000,53.199493,253.995265)" style="font-size:21.250000px;font-style:normal;font-variant:normal;font-weight:400;font-stretch:Normal;line-height:125.000000%;letter-spacing:0px;word-spacing:0px;fill:#000000;fill-opacity:1;stroke:none;font-family:Calibri;text-align:start;text-anchor:start;" xml:space="preserve"><tspan id="tspan100" y="0.000000" x="0.000000"><tspan id="tspan98" style="fill:#FFFFFF;font-size:21.250000px;font-style:normal;font-variant:normal;font-weight:400;font-stretch:Normal;font-family:Calibri;" dy="0.000000" dx="0.000000">time range according to </tspan></tspan></text>
  <text id="text108" y="0.000000" x="0.000000" transform="matrix(1.000000,-0.000000,0.000000,1.000000,117.196169,279.593916)" style="font-size:21.250000px;font-style:normal;font-variant:normal;font-weight:400;font-stretch:Normal;line-height:125.000000%;letter-spacing:0px;word-spacing:0px;fill:#000000;fill-opacity:1;stroke:none;font-family:Calibri;text-align:start;text-anchor:start;" xml:space="preserve"><tspan id="tspan106" y="0.000000" x="0.000000"><tspan id="tspan104" style="fill:#FFFFFF;font-size:21.250000px;font-style:normal;font-variant:normal;font-weight:400;font-stretch:Normal;font-family:Calibri;" dy="0.000000" dx="0.000000">schedule</tspan></tspan></text>
  <path id="path110" d="  M 940.83113,202.1495   L 940.83113,291.26487   L 1190.2582,291.26487   L 1190.2582,202.1495   L 940.83113,202.1495   z " style="fill:#548235;fill-rule:evenodd;fill-opacity:1;stroke:none;"/>
  <path id="path112" d="  M 940.83113,202.1495   L 1190.2582,202.1495   L 1190.2582,291.26487   L 940.83113,291.26487   z " style="fill:none;stroke:#2f528f;stroke-width:1.2799336px;stroke-linecap:butt;stroke-linejoin:miter;stroke-miterlimit:8;stroke-dasharray:none;stroke-opacity:1;"/>
  <text id="text118" y="0.000000" x="0.000000" transform="matrix(1.000000,-0.000000,0.000000,1.000000,951.649869,241.195929)" style="font-size:21.250000px;font-style:normal;font-variant:normal;font-weight:400;font-stretch:Normal;line-height:125.000000%;letter-spacing:0px;word-spacing:0px;fill:#000000;fill-opacity:1;stroke:none;font-family:Calibri;text-align:start;text-anchor:start;" xml:space="preserve"><tspan id="tspan116" y="0.000000" x="0.000000"><tspan id="tspan114" style="fill:#FFFFFF;font-size:21.250000px;font-style:normal;font-variant:normal;font-weight:400;font-stretch:Normal;font-family:Calibri;" dy="0.000000" dx="0.000000">Generate trucks to </tspan></tspan></text>
  <text id="text124" y="0.000000" x="0.000000" transform="matrix(1.000000,-0.000000,0.000000,1.000000,1117.721243,241.195929)" style="font-size:21.250000px;font-style:normal;font-variant:normal;font-weight:400;font-stretch:Normal;line-height:125.000000%;letter-spacing:0px;word-spacing:0px;fill:#000000;fill-opacity:1;stroke:none;font-family:Calibri;text-align:start;text-anchor:start;" xml:space="preserve"><tspan id="tspan122" y="0.000000" x="0.000000"><tspan id="tspan120" style="fill:#FFFFFF;font-size:21.250000px;font-style:normal;font-variant:normal;font-weight:400;font-stretch:Normal;font-family:Calibri;" dy="0.000000" dx="0.000000">pick up </tspan></tspan></text>
  <text id="text130" y="0.000000" x="0.000000" transform="matrix(1.000000,-0.000000,0.000000,1.000000,1020.446295,266.794580)" style="font-size:21.250000px;font-style:normal;font-variant:normal;font-weight:400;font-stretch:Normal;line-height:125.000000%;letter-spacing:0px;word-spacing:0px;fill:#000000;fill-opacity:1;stroke:none;font-family:Calibri;text-align:start;text-anchor:start;" xml:space="preserve"><tspan id="tspan128" y="0.000000" x="0.000000"><tspan id="tspan126" style="fill:#FFFFFF;font-size:21.250000px;font-style:normal;font-variant:normal;font-weight:400;font-stretch:Normal;font-family:Calibri;" dy="0.000000" dx="0.000000">containers</tspan></tspan></text>
  <path id="path132" d="  M 640.84671,202.1495   L 640.84671,291.26487   L 882.59416,291.26487   L 882.59416,202.1495   L 640.84671,202.1495   z " style="fill:#548235;fill-rule:evenodd;fill-opacity:1;stroke:none;"/>
  <path id="path134" d="  M 640.84671,202.1495   L 882.59416,202.1495   L 882.59416,291.26487   L 640.84671,291.26487   z " style="fill:none;stroke:#2f528f;stroke-width:1.2799336px;stroke-linecap:butt;stroke-linejoin:miter;stroke-miterlimit:8;stroke-dasharray:none;stroke-opacity:1;"/>
  <text id="text140" y="0.000000" x="0.000000" transform="matrix(1.000000,-0.000000,0.000000,1.000000,665.389424,241.195929)" style="font-size:21.250000px;font-style:normal;font-variant:normal;font-weight:400;font-stretch:Normal;line-height:125.000000%;letter-spacing:0px;word-spacing:0px;fill:#000000;fill-opacity:1;stroke:none;font-family:Calibri;text-align:start;text-anchor:start;" xml:space="preserve"><tspan id="tspan138" y="0.000000" x="0.000000"><tspan id="tspan136" style="fill:#FFFFFF;font-size:21.250000px;font-style:normal;font-variant:normal;font-weight:400;font-stretch:Normal;font-family:Calibri;" dy="0.000000" dx="0.000000">Assign next vehicle for </tspan></tspan></text>
  <text id="text146" y="0.000000" x="0.000000" transform="matrix(1.000000,-0.000000,0.000000,1.000000,655.949915,266.794580)" style="font-size:21.250000px;font-style:normal;font-variant:normal;font-weight:400;font-stretch:Normal;line-height:125.000000%;letter-spacing:0px;word-spacing:0px;fill:#000000;fill-opacity:1;stroke:none;font-family:Calibri;text-align:start;text-anchor:start;" xml:space="preserve"><tspan id="tspan144" y="0.000000" x="0.000000"><tspan id="tspan142" style="fill:#FFFFFF;font-size:21.250000px;font-style:normal;font-variant:normal;font-weight:400;font-stretch:Normal;font-family:Calibri;" dy="0.000000" dx="0.000000">each of these containers</tspan></tspan></text>
  <path id="path148" d="  M 332.86271,202.1495   L 332.86271,291.26487   L 582.28976,291.26487   L 582.28976,202.1495   L 332.86271,202.1495   z " style="fill:#548235;fill-rule:evenodd;fill-opacity:1;stroke:none;"/>
  <path id="path150" d="  M 332.86271,202.1495   L 582.28976,202.1495   L 582.28976,291.26487   L 332.86271,291.26487   z " style="fill:none;stroke:#2f528f;stroke-width:1.2799336px;stroke-linecap:butt;stroke-linejoin:miter;stroke-miterlimit:8;stroke-dasharray:none;stroke-opacity:1;"/>
  <text id="text156" y="0.000000" x="0.000000" transform="matrix(1.000000,-0.000000,0.000000,1.000000,353.509530,228.396594)" style="font-size:21.250000px;font-style:normal;font-variant:normal;font-weight:400;font-stretch:Normal;line-height:125.000000%;letter-spacing:0px;word-spacing:0px;fill:#000000;fill-opacity:1;stroke:none;font-family:Calibri;text-align:start;text-anchor:start;" xml:space="preserve"><tspan id="tspan154" y="0.000000" x="0.000000"><tspan id="tspan152" style="fill:#FFFFFF;font-size:21.250000px;font-style:normal;font-variant:normal;font-weight:400;font-stretch:Normal;font-family:Calibri;" dy="0.000000" dx="0.000000">Create containers which </tspan></tspan></text>
  <text id="text162" y="0.000000" x="0.000000" transform="matrix(1.000000,-0.000000,0.000000,1.000000,361.829097,253.995265)" style="font-size:21.250000px;font-style:normal;font-variant:normal;font-weight:400;font-stretch:Normal;line-height:125.000000%;letter-spacing:0px;word-spacing:0px;fill:#000000;fill-opacity:1;stroke:none;font-family:Calibri;text-align:start;text-anchor:start;" xml:space="preserve"><tspan id="tspan160" y="0.000000" x="0.000000"><tspan id="tspan158" style="fill:#FFFFFF;font-size:21.250000px;font-style:normal;font-variant:normal;font-weight:400;font-stretch:Normal;font-family:Calibri;" dy="0.000000" dx="0.000000">are delivered by these </tspan></tspan></text>
  <text id="text168" y="0.000000" x="0.000000" transform="matrix(1.000000,-0.000000,0.000000,1.000000,423.265906,279.593916)" style="font-size:21.250000px;font-style:normal;font-variant:normal;font-weight:400;font-stretch:Normal;line-height:125.000000%;letter-spacing:0px;word-spacing:0px;fill:#000000;fill-opacity:1;stroke:none;font-family:Calibri;text-align:start;text-anchor:start;" xml:space="preserve"><tspan id="tspan166" y="0.000000" x="0.000000"><tspan id="tspan164" style="fill:#FFFFFF;font-size:21.250000px;font-style:normal;font-variant:normal;font-weight:400;font-stretch:Normal;font-family:Calibri;" dy="0.000000" dx="0.000000">vehicles</tspan></tspan></text>
  <path id="path170" d="  M 32.878292,342.30222   L 32.878292,431.41759   L 582.28976,431.41759   L 582.28976,342.30222   L 32.878292,342.30222   z " style="fill:#548235;fill-rule:evenodd;fill-opacity:1;stroke:none;"/>
  <path id="path172" d="  M 32.878292,342.30222   L 582.28976,342.30222   L 582.28976,431.41759   L 32.878292,431.41759   z " style="fill:none;stroke:#2f528f;stroke-width:1.2799336px;stroke-linecap:butt;stroke-linejoin:miter;stroke-miterlimit:8;stroke-dasharray:none;stroke-opacity:1;"/>
  <text id="text178" y="0.000000" x="0.000000" transform="matrix(1.000000,-0.000000,0.000000,1.000000,48.541732,368.507422)" style="font-size:21.250000px;font-style:normal;font-variant:normal;font-weight:400;font-stretch:Normal;line-height:125.000000%;letter-spacing:0px;word-spacing:0px;fill:#000000;fill-opacity:1;stroke:none;font-family:Calibri;text-align:start;text-anchor:start;" xml:space="preserve"><tspan id="tspan176" y="0.000000" x="0.000000"><tspan id="tspan174" style="fill:#FFFFFF;font-size:21.250000px;font-style:normal;font-variant:normal;font-weight:400;font-stretch:Normal;font-family:Calibri;" dy="0.000000" dx="0.000000">Choose </tspan></tspan></text>
  <text id="text184" y="0.000000" x="0.000000" transform="matrix(1.000000,-0.000000,0.000000,1.000000,117.498145,368.507422)" style="font-size:21.250000px;font-style:normal;font-variant:normal;font-weight:400;font-stretch:Normal;line-height:125.000000%;letter-spacing:0px;word-spacing:0px;fill:#000000;fill-opacity:1;stroke:none;font-family:Calibri;text-align:start;text-anchor:start;" xml:space="preserve"><tspan id="tspan182" y="0.000000" x="0.000000"><tspan id="tspan180" style="fill:#FFFFFF;font-size:21.250000px;font-style:normal;font-variant:normal;font-weight:400;font-stretch:Normal;font-family:Calibri;" dy="0.000000" dx="0.000000">next destination for each </tspan></tspan></text>
  <text id="text190" y="0.000000" x="0.000000" transform="matrix(1.000000,-0.000000,0.000000,1.000000,338.286687,368.507422)" style="font-size:21.250000px;font-style:normal;font-variant:normal;font-weight:400;font-stretch:Normal;line-height:125.000000%;letter-spacing:0px;word-spacing:0px;fill:#000000;fill-opacity:1;stroke:none;font-family:Calibri;text-align:start;text-anchor:start;" xml:space="preserve"><tspan id="tspan188" y="0.000000" x="0.000000"><tspan id="tspan186" style="fill:#FFFFFF;font-size:21.250000px;font-style:normal;font-variant:normal;font-weight:400;font-stretch:Normal;font-family:Calibri;" dy="0.000000" dx="0.000000">container that is picked up </tspan></tspan></text>
  <text id="text196" y="0.000000" x="0.000000" transform="matrix(1.000000,-0.000000,0.000000,1.000000,58.621203,394.106093)" style="font-size:21.250000px;font-style:normal;font-variant:normal;font-weight:400;font-stretch:Normal;line-height:125.000000%;letter-spacing:0px;word-spacing:0px;fill:#000000;fill-opacity:1;stroke:none;font-family:Calibri;text-align:start;text-anchor:start;" xml:space="preserve"><tspan id="tspan194" y="0.000000" x="0.000000"><tspan id="tspan192" style="fill:#FFFFFF;font-size:21.250000px;font-style:normal;font-variant:normal;font-weight:400;font-stretch:Normal;font-family:Calibri;" dy="0.000000" dx="0.000000">by a vehicle moving according to a schedule for which the </tspan></tspan></text>
  <text id="text202" y="0.000000" x="0.000000" transform="matrix(1.000000,-0.000000,0.000000,1.000000,140.376967,419.704763)" style="font-size:21.250000px;font-style:normal;font-variant:normal;font-weight:400;font-stretch:Normal;line-height:125.000000%;letter-spacing:0px;word-spacing:0px;fill:#000000;fill-opacity:1;stroke:none;font-family:Calibri;text-align:start;text-anchor:start;" xml:space="preserve"><tspan id="tspan200" y="0.000000" x="0.000000"><tspan id="tspan198" style="fill:#FFFFFF;font-size:21.250000px;font-style:normal;font-variant:normal;font-weight:400;font-stretch:Normal;font-family:Calibri;" dy="0.000000" dx="0.000000">next destinations are known (optional)</tspan></tspan></text>
  <path id="path204" d="  M 641.00671,342.30222   L 641.00671,431.41759   L 882.59416,431.41759   L 882.59416,342.30222   L 641.00671,342.30222   z " style="fill:#548235;fill-rule:evenodd;fill-opacity:1;stroke:none;"/>
  <path id="path206" d="  M 641.00671,342.30222   L 882.59416,342.30222   L 882.59416,431.41759   L 641.00671,431.41759   z " style="fill:none;stroke:#2f528f;stroke-width:1.2799336px;stroke-linecap:butt;stroke-linejoin:miter;stroke-miterlimit:8;stroke-dasharray:none;stroke-opacity:1;"/>
  <text id="text212" y="0.000000" x="0.000000" transform="matrix(1.000000,-0.000000,0.000000,1.000000,672.611081,381.306758)" style="font-size:21.250000px;font-style:normal;font-variant:normal;font-weight:400;font-stretch:Normal;line-height:125.000000%;letter-spacing:0px;word-spacing:0px;fill:#000000;fill-opacity:1;stroke:none;font-family:Calibri;text-align:start;text-anchor:start;" xml:space="preserve"><tspan id="tspan210" y="0.000000" x="0.000000"><tspan id="tspan208" style="fill:#FFFFFF;font-size:21.250000px;font-style:normal;font-variant:normal;font-weight:400;font-stretch:Normal;font-family:Calibri;" dy="0.000000" dx="0.000000">Generate trucks </tspan></tspan></text>
  <text id="text218" y="0.000000" x="0.000000" transform="matrix(1.000000,-0.000000,0.000000,1.000000,815.483660,381.306758)" style="font-size:21.250000px;font-style:normal;font-variant:normal;font-weight:400;font-stretch:Normal;line-height:125.000000%;letter-spacing:0px;word-spacing:0px;fill:#000000;fill-opacity:1;stroke:none;font-family:Calibri;text-align:start;text-anchor:start;" xml:space="preserve"><tspan id="tspan216" y="0.000000" x="0.000000"><tspan id="tspan214" style="fill:#FFFFFF;font-size:21.250000px;font-style:normal;font-variant:normal;font-weight:400;font-stretch:Normal;font-family:Calibri;" dy="0.000000" dx="0.000000">that </tspan></tspan></text>
  <text id="text224" y="0.000000" x="0.000000" transform="matrix(1.000000,-0.000000,0.000000,1.000000,667.811330,406.905428)" style="font-size:21.250000px;font-style:normal;font-variant:normal;font-weight:400;font-stretch:Normal;line-height:125.000000%;letter-spacing:0px;word-spacing:0px;fill:#000000;fill-opacity:1;stroke:none;font-family:Calibri;text-align:start;text-anchor:start;" xml:space="preserve"><tspan id="tspan222" y="0.000000" x="0.000000"><tspan id="tspan220" style="fill:#FFFFFF;font-size:21.250000px;font-style:normal;font-variant:normal;font-weight:400;font-stretch:Normal;font-family:Calibri;" dy="0.000000" dx="0.000000">deliver </tspan></tspan></text>
  <text id="text230" y="0.000000" x="0.000000" transform="matrix(1.000000,-0.000000,0.000000,1.000000,731.808006,406.905428)" style="font-size:21.250000px;font-style:normal;font-variant:normal;font-weight:400;font-stretch:Normal;line-height:125.000000%;letter-spacing:0px;word-spacing:0px;fill:#000000;fill-opacity:1;stroke:none;font-family:Calibri;text-align:start;text-anchor:start;" xml:space="preserve"><tspan id="tspan228" y="0.000000" x="0.000000"><tspan id="tspan226" style="fill:#FFFFFF;font-size:21.250000px;font-style:normal;font-variant:normal;font-weight:400;font-stretch:Normal;font-family:Calibri;" dy="0.000000" dx="0.000000">the containers</tspan></tspan></text>
  <path id="path232" d="  M 21.838866,183.75046   L 768.48009,128.07335   L 1211.0571,183.75046   z " style="fill:#548235;fill-rule:evenodd;fill-opacity:1;stroke:none;"/>
  <path id="path234" d="  M 21.838866,183.75046   L 768.48009,128.07335   L 1211.0571,183.75046   z " style="fill:none;stroke:#548235;stroke-width:1.2799336px;stroke-linecap:butt;stroke-linejoin:miter;stroke-miterlimit:8;stroke-dasharray:none;stroke-opacity:1;"/>
  <path id="path236" d="  M 266.54616,59.916888   L 315.50361,59.916888   L 315.50361,55.277129   L 266.54616,55.277129   L 266.54616,59.916888  z    M 313.18373,64.556647   L 327.10301,57.597008   L 313.18373,50.63737   L 313.18373,64.556647  z   " style="fill:#7f7f7f;fill-rule:nonzero;fill-opacity:1;stroke:#7f7f7f;stroke-width:0.019998962px;stroke-linecap:butt;stroke-linejoin:round;stroke-miterlimit:10;stroke-dasharray:none;stroke-opacity:1;"/>
  <path id="path238" d="  M 580.28986,60.556855   L 629.24732,60.556855   L 629.24732,55.917096   L 580.28986,55.917096   L 580.28986,60.556855  z    M 626.92744,65.196614   L 640.84671,58.236975   L 626.92744,51.277337   L 626.92744,65.196614  z   " style="fill:#7f7f7f;fill-rule:nonzero;fill-opacity:1;stroke:#7f7f7f;stroke-width:0.039997924px;stroke-linecap:butt;stroke-linejoin:round;stroke-miterlimit:10;stroke-dasharray:none;stroke-opacity:1;"/>
  <path id="path240" d="  M 897.2334,59.916888   L 945.15091,59.916888   L 945.15091,55.277129   L 897.2334,55.277129   L 897.2334,59.916888  z    M 942.83103,64.556647   L 956.75031,57.597008   L 942.83103,50.63737   L 942.83103,64.556647  z   " style="fill:#7f7f7f;fill-rule:nonzero;fill-opacity:1;stroke:#7f7f7f;stroke-width:0.039997924px;stroke-linecap:butt;stroke-linejoin:round;stroke-miterlimit:10;stroke-dasharray:none;stroke-opacity:1;"/>
  <path id="path242" d="  M 278.38554,244.5473   L 321.34331,244.5473   L 321.34331,249.18706   L 278.38554,249.18706   L 278.38554,244.5473  z    M 319.02343,239.90754   L 332.94271,246.86718   L 319.02343,253.82682   L 319.02343,239.90754  z   " style="fill:#7f7f7f;fill-rule:nonzero;fill-opacity:1;stroke:#7f7f7f;stroke-width:0.019998962px;stroke-linecap:butt;stroke-linejoin:round;stroke-miterlimit:10;stroke-dasharray:none;stroke-opacity:1;"/>
  <path id="path244" d="  M 582.36975,244.5473   L 629.24732,244.5473   L 629.24732,249.18706   L 582.36975,249.18706   L 582.36975,244.5473  z    M 626.92744,239.90754   L 640.84671,246.86718   L 626.92744,253.82682   L 626.92744,239.90754  z   " style="fill:#7f7f7f;fill-rule:nonzero;fill-opacity:1;stroke:#7f7f7f;stroke-width:0.039997924px;stroke-linecap:butt;stroke-linejoin:round;stroke-miterlimit:10;stroke-dasharray:none;stroke-opacity:1;"/>
  <path id="path246" d="  M 882.67415,244.5473   L 929.35173,244.5473   L 929.35173,249.18706   L 882.67415,249.18706   L 882.67415,244.5473  z    M 927.03185,239.90754   L 940.95113,246.86718   L 927.03185,253.82682   L 927.03185,239.90754  z   " style="fill:#7f7f7f;fill-rule:nonzero;fill-opacity:1;stroke:#7f7f7f;stroke-width:0.039997924px;stroke-linecap:butt;stroke-linejoin:round;stroke-miterlimit:10;stroke-dasharray:none;stroke-opacity:1;"/>
  <path id="path248" d="  M 1063.2248,291.34487   L 1063.2248,330.78282   L 1067.8645,330.78282   L 1067.8645,291.34487   L 1063.2248,291.34487  z    M 1058.585,328.46294   L 1065.5447,342.38222   L 1072.5043,328.46294   L 1058.585,328.46294  z   " style="fill:#7f7f7f;fill-rule:nonzero;fill-opacity:1;stroke:#7f7f7f;stroke-width:0.039997924px;stroke-linecap:butt;stroke-linejoin:round;stroke-miterlimit:10;stroke-dasharray:none;stroke-opacity:1;"/>
  <path id="path250" d="  M 940.95113,389.17979   L 894.27355,389.17979   L 894.27355,384.54003   L 940.95113,384.54003   L 940.95113,389.17979  z    M 896.59343,393.81955   L 882.67415,386.85991   L 896.59343,379.90027   L 896.59343,393.81955  z   " style="fill:#7f7f7f;fill-rule:nonzero;fill-opacity:1;stroke:#7f7f7f;stroke-width:0.039997924px;stroke-linecap:butt;stroke-linejoin:round;stroke-miterlimit:10;stroke-dasharray:none;stroke-opacity:1;"/>
  <path id="path252" d="  M 641.0467,384.54003   L 593.96915,384.54003   L 593.96915,389.17979   L 641.0467,389.17979   L 641.0467,384.54003  z    M 596.28903,379.90027   L 582.36975,386.85991   L 596.28903,393.81955   L 596.28903,379.90027  z   " style="fill:#7f7f7f;fill-rule:nonzero;fill-opacity:1;stroke:#7f7f7f;stroke-width:0.039997924px;stroke-linecap:butt;stroke-linejoin:round;stroke-miterlimit:10;stroke-dasharray:none;stroke-opacity:1;"/>
</svg>